# xmcd
#
# Track frame offsets:
#	150
#	13238
#	29600
#	40500
#	53788
#	66675
#	84125
#	97413
#	111588
#	124625
#	138175
#	148763
#	163013
#	177188
#	190338
#	205250
#
# Disc length: 2958 seconds
#
# Revision: 2
# Processed by: cddbd v1.4b41PL2 Copyright (c) Steve Scherf et al.
# Submitted via: EZCDDA 4.3.2
#
DISCID=ed0b8c10
DTITLE=Various Artist - Saxy Moods
DYEAR=1900
DGENRE=
TTITLE0=Je T'aime
TTITLE1=Love Story
TTITLE2=Concerto D'aranjuez
TTITLE3=Jealous Guy
TTITLE4=When I Need You
TTITLE5=Les Vieux Maries
TTITLE6=I Write the Songs
TTITLE7=Sleepy Shores
TTITLE8=Killing Me Softly
TTITLE9=We've Got Tonight
TTITLE10=Send in the Clowns
TTITLE11=Lara's Theme
TTITLE12=Still
TTITLE13=Misty Blue
TTITLE14=Let It Be Me
TTITLE15=Vaya Con Dios
EXTD=
EXTT0=
EXTT1=
EXTT2=
EXTT3=
EXTT4=
EXTT5=
EXTT6=
EXTT7=
EXTT8=
EXTT9=
EXTT10=
EXTT11=
EXTT12=
EXTT13=
EXTT14=
EXTT15=
PLAYORDER=
